<svg viewBox="0 0 243 252" fill="none" xmlns="http://www.w3.org/2000/svg">
<path d="M121.5 0C188.603 0 243 55.7405 243 124.5C243 147.745 236.781 169.501 225.958 188.119C218.448 192.471 205.358 199.557 195 202.5C183.053 205.895 163.516 206.973 163.5 206.974C191.201 191.551 210 161.52 210 127C210 76.7421 170.153 36 121 36C71.8467 36 32 76.7421 32 127C32 145.468 38.7543 167.651 48 182L25.9219 201.374C9.68477 180.207 0 153.512 0 124.5C0 55.7405 54.3974 0 121.5 0Z" fill="#0B5EFC"></path>
<path d="M68.5 185C49.6914 191.067 29.5 207.5 29.5 207.5C29.5 207.5 54.5 232.435 77 240.5C106.079 250.923 130.46 252.035 160 243C184.91 235.381 211.5 207.5 211.5 207.5C211.5 207.5 181 220.117 162 219C149.566 218.269 139.5 217.5 131 211.5C125.499 207.617 120.55 202.282 124 196.5C126.627 192.099 135 192.5 135 192.5C135 192.5 126.895 185.426 118 183C101.5 178.5 84 180 68.5 185Z" fill="#227CFD"></path>
<path d="M78.97 115.621C80.4698 110.51 85.1585 107 90.4844 107H133.516C138.842 107 143.53 110.51 145.03 115.621L151.487 137.621C153.742 145.305 147.981 142.5 139.972 142.5H84.0279C76.0195 142.5 70.2583 145.305 72.5135 137.621L78.97 115.621Z" fill="#001EE4"></path>
<path d="M133.516 107C138.842 107 143.53 110.511 145.03 115.621L145.142 116H78.8584L78.9697 115.621C80.4695 110.511 85.1585 107 90.4844 107H133.516Z" fill="#1A1A1A"></path>
<path d="M112 61C118.013 61 121.071 63.9733 121.815 67.9619C130.176 71.4793 136 79.352 136 88.5C136 100.926 125.255 111 112 111C98.7452 111 88 100.926 88 88.5C88 79.3523 93.823 71.4795 102.184 67.9619C102.928 63.9732 105.987 61 112 61Z" fill="#F2860C"></path>
<path d="M126.935 50.9999C134.435 50 137.935 53.9999 143.935 52.9999C140.601 59.8332 130.034 70.3994 116.435 59.9999H113.701L113.588 63.4003C113.558 64.2919 112.827 64.9998 111.935 64.9999C111.043 64.9999 110.311 64.2919 110.281 63.4003L110.001 54.9979C109.965 53.9051 110.841 52.9999 111.935 52.9999C113.028 53 113.904 53.9052 113.868 54.9979L113.768 57.9999H116.435C117.435 55.9999 120.935 51.7999 126.935 50.9999Z" fill="#2AAE48"></path>
<path d="M143.934 53C140.601 59.8333 130.034 70.4 116.434 60C118.268 58.8333 123.334 56.4 128.934 56C135.934 55.5 136.934 56.5 143.934 53Z" fill="#009A24"></path>
<path d="M123.5 129.5C136.5 129.5 153 129.5 160 133.5C167 137.5 167 143 167 143V150C167 150 186 146.5 190.5 150.5C197.5 156.722 180.056 180.434 169 193.5C163.5 200 155 207.5 152 207.5C149 207.5 144.5 207 140 205.5C136.295 204.265 130.5 201.5 132 199.5C133.5 197.5 140 198.5 140 198.5C140 198.5 141 194 141 191C141 188 140.949 178.175 118 173.5C91 168 75 173.5 64 177.5C53 181.5 32 195.947 32 195.947C32 195.947 38.1842 183.487 44.5 177.5C48.9789 173.255 57.4904 168.505 57.5 168.5C57.5 168.5 56.115 153.704 60.5 146C62.9626 141.674 64.9459 139.389 69 136.5C76.0201 131.497 84.5 131 90.5 130.5C96.5 130 110.412 129.5 123.5 129.5ZM103 144C99.6863 144 97 146.686 97 150C97 153.314 99.6863 156 103 156C106.314 156 109 153.314 109 150C109 146.686 106.314 144 103 144ZM121 144C117.686 144 115 146.686 115 150C115 153.314 117.686 156 121 156C124.314 156 127 153.314 127 150C127 146.686 124.314 144 121 144ZM139 144C135.686 144 133 146.686 133 150C133 153.314 135.686 156 139 156C142.314 156 145 153.314 145 150C145 146.686 142.314 144 139 144Z" fill="#1A1A1A"></path>
<path d="M68.5 185C84 180 101.5 178.5 118 183C126.895 185.426 135 192.5 135 192.5C135 192.5 116.402 189.595 104.5 190.5C87.9185 191.761 78.2475 194.316 63.5 202C56.1409 205.835 47.8952 212.587 41.5508 218.316C34.2997 212.285 29.5204 207.52 29.5 207.5C29.5 207.5 49.6914 191.067 68.5 185Z" fill="#83C3FE"></path>
</svg>