<svg xmlns="http://www.w3.org/2000/svg" viewBox="0 0 24 24" width="24" height="24" fill="currentColor"><path d="M 9.9 0 C 4.432 0 0 4.432 0 9.9 C 0 15.368 4.432 19.8 9.9 19.8 C 15.368 19.8 19.8 15.368 19.8 9.9 C 19.8 4.432 15.368 0 9.9 0 Z M 9.4 3.999 C 9.897 3.999 10.3 4.402 10.3 4.899 L 10.3 10.027 L 12.615 12.341 C 12.966 12.693 12.966 13.263 12.615 13.614 C 12.263 13.966 11.693 13.966 11.342 13.614 L 8.763 11.036 C 8.584 10.856 8.496 10.62 8.5 10.385 L 8.5 4.899 C 8.5 4.402 8.903 3.999 9.4 3.999 Z" fill="currentColor" fill-rule="evenodd" transform="matrix(1 0 0 1 2.100 2.100)"></path></svg>