<svg xmlns="http://www.w3.org/2000/svg" viewBox="0 0 24 24" width="24" height="24" fill="currentColor"><path d="M 1.564 1.557 C 3.582 -0.452 6.834 -0.517 8.931 1.363 L 9.137 1.557 L 10.421 2.836 L 11.705 1.557 C 13.722 -0.452 16.975 -0.517 19.071 1.363 L 19.277 1.557 C 21.154 3.427 21.362 6.4 19.798 8.51 C 19.487 8.931 18.893 9.019 18.473 8.707 C 18.053 8.396 17.964 7.803 18.276 7.382 C 19.282 6.024 19.148 4.103 17.94 2.9 C 16.651 1.616 14.57 1.562 13.215 2.739 L 13.043 2.9 L 11.09 4.845 C 10.754 5.18 10.229 5.211 9.859 4.937 L 9.752 4.845 L 7.8 2.9 C 6.454 1.56 4.247 1.56 2.902 2.9 C 1.615 4.182 1.561 6.251 2.743 7.602 L 2.905 7.774 L 10.167 15.073 C 10.223 15.129 10.304 15.16 10.442 15.158 C 10.506 15.159 10.563 15.146 10.61 15.121 L 10.674 15.074 L 16.383 9.372 C 16.753 9.002 17.353 9.002 17.723 9.373 C 18.059 9.709 18.089 10.236 17.814 10.606 L 17.722 10.712 L 12.012 16.415 C 11.581 16.845 10.999 17.065 10.442 17.052 C 9.909 17.064 9.39 16.891 8.977 16.549 L 8.827 16.413 L 1.564 9.113 C -0.521 7.034 -0.521 3.636 1.564 1.557 Z" fill="currentColor" fill-rule="nonzero" transform="matrix(1 0 0 1 1.579 3.474)"></path></svg>