<svg xmlns="http://www.w3.org/2000/svg" viewBox="0 0 24 24" width="24" height="24" fill="currentColor"><path d="M 8.4 0 C 7.052 0 5.702 0.551 4.749 1.493 L 4.746 1.496 C 3.934 2.309 3.516 3.27 3.351 4.513 L 3.351 4.518 C 3.275 5.113 3.25 5.814 3.25 6.85 L 3.25 7.256 C 3.055 7.26 2.876 7.267 2.713 7.281 C 2.324 7.312 1.945 7.382 1.583 7.566 C 1.038 7.845 0.594 8.288 0.316 8.834 C 0.132 9.196 0.062 9.574 0.03 9.964 C 0 10.334 0 10.785 0 11.315 L 0 15.486 C 0 16.016 0 16.467 0.03 16.837 C 0.062 17.226 0.132 17.605 0.316 17.967 C 0.594 18.513 1.038 18.956 1.583 19.234 C 1.945 19.419 2.324 19.488 2.713 19.52 C 3.084 19.55 3.535 19.55 4.065 19.55 L 12.735 19.55 C 13.265 19.55 13.716 19.55 14.087 19.52 C 14.476 19.488 14.855 19.419 15.217 19.234 C 15.762 18.956 16.206 18.513 16.484 17.967 C 16.668 17.605 16.738 17.226 16.77 16.837 C 16.8 16.467 16.8 16.016 16.8 15.486 L 16.8 11.315 C 16.8 10.785 16.8 10.334 16.77 9.964 C 16.738 9.574 16.668 9.196 16.484 8.834 C 16.206 8.288 15.762 7.845 15.217 7.566 C 14.855 7.382 14.476 7.312 14.087 7.281 C 13.923 7.267 13.744 7.26 13.55 7.256 L 13.55 6.85 C 13.55 5.765 13.525 5.073 13.458 4.524 L 13.457 4.51 C 13.291 3.294 12.866 2.308 12.054 1.496 L 12.05 1.493 C 11.089 0.542 9.756 0 8.4 0 Z M 11.75 7.25 L 11.75 6.85 C 11.75 5.782 11.724 5.182 11.672 4.746 C 11.548 3.842 11.261 3.249 10.783 2.771 C 10.163 2.159 9.287 1.8 8.4 1.8 C 7.522 1.8 6.629 2.167 6.017 2.771 C 5.539 3.249 5.26 3.817 5.136 4.747 C 5.076 5.223 5.05 5.831 5.05 6.85 L 5.05 7.25 L 11.75 7.25 Z" fill="currentColor" fill-rule="evenodd" transform="matrix(1 0 0 1 3.600 2.349)"></path></svg>