<svg xmlns="http://www.w3.org/2000/svg" viewBox="0 0 24 24" width="24" height="24" fill="currentColor"><path d="M 8.65 5.826 C 8.65 6.447 9.154 6.951 9.775 6.951 L 10.293 6.951 C 10.628 6.952 10.9 7.224 10.9 7.56 C 10.901 7.888 11.163 8.158 11.491 8.167 L 12.185 8.186 L 12.143 8.464 C 11.881 9.74 10.752 10.699 9.399 10.699 C 8.943 10.699 8.514 10.586 8.134 10.391 L 8.134 10.066 C 8.134 9.899 8.27 9.763 8.438 9.763 L 8.719 9.763 C 9.233 9.762 9.65 9.346 9.65 8.832 C 9.65 8.318 9.233 7.901 8.719 7.9 L 6.6 7.9 C 6.6 6.614 7.468 5.532 8.65 5.205 L 8.65 5.826 Z" fill="currentColor" fill-rule="nonzero" transform="matrix(1 0 0 1 2.600 2.100)"></path><path d="M 13.9 0 C 14.585 0 15.153 -0.001 15.615 0.037 C 16.088 0.076 16.529 0.16 16.944 0.371 C 17.584 0.697 18.104 1.217 18.43 1.856 C 18.641 2.272 18.725 2.713 18.764 3.186 C 18.801 3.647 18.801 4.216 18.801 4.9 L 18.801 14.9 C 18.801 15.585 18.801 16.153 18.764 16.615 C 18.725 17.088 18.641 17.529 18.43 17.944 C 18.104 18.584 17.584 19.104 16.944 19.43 C 16.529 19.641 16.087 19.725 15.615 19.764 C 15.153 19.801 14.585 19.801 13.9 19.801 L 4.9 19.801 C 4.216 19.801 3.647 19.801 3.186 19.764 C 2.713 19.725 2.272 19.641 1.856 19.43 C 1.217 19.104 0.697 18.584 0.371 17.944 C 0.16 17.529 0.076 17.088 0.037 16.615 C -0.001 16.153 0 15.585 0 14.9 L 0 4.9 C 0 4.216 -0.001 3.647 0.037 3.186 C 0.076 2.713 0.16 2.272 0.371 1.856 C 0.697 1.217 1.217 0.697 1.856 0.371 C 2.272 0.16 2.713 0.076 3.186 0.037 C 3.647 -0.001 4.216 0 4.9 0 L 13.9 0 Z M 6.899 14.75 C 6.403 14.75 5.999 15.153 5.999 15.65 C 5.999 16.147 6.403 16.551 6.899 16.551 L 11.899 16.551 C 12.396 16.551 12.8 16.147 12.8 15.65 C 12.8 15.153 12.396 14.75 11.899 14.75 L 6.899 14.75 Z M 9.399 3.699 C 7.08 3.699 5.199 5.58 5.199 7.899 C 5.199 10.219 7.08 12.1 9.399 12.1 C 11.719 12.1 13.6 10.219 13.6 7.899 C 13.6 5.58 11.719 3.699 9.399 3.699 Z" fill="currentColor" fill-rule="evenodd" transform="matrix(1 0 0 1 2.600 2.100)"></path></svg>