<svg xmlns="http://www.w3.org/2000/svg" viewBox="0 0 24 24" width="24" height="24" fill="currentColor"><path d="M 4.267 0 C 3.85 0 3.478 0 3.179 0.027 C 2.874 0.055 2.498 0.121 2.168 0.359 C 1.734 0.672 1.452 1.155 1.391 1.687 C 1.346 2.092 1.473 2.451 1.598 2.73 C 1.721 3.005 1.903 3.329 2.108 3.692 L 2.919 5.135 L 2.919 8.083 L 1.171 10.269 C 0.86 10.658 0.588 10.997 0.399 11.283 C 0.214 11.563 0 11.943 0 12.397 C -0.001 12.976 0.262 13.523 0.715 13.884 C 1.069 14.167 1.499 14.238 1.834 14.268 C 2.176 14.299 2.61 14.299 3.107 14.299 L 6.419 14.299 L 6.419 19.399 C 6.419 19.896 6.822 20.299 7.319 20.299 C 7.816 20.299 8.219 19.896 8.219 19.399 L 8.219 14.299 L 11.531 14.299 C 12.029 14.299 12.463 14.299 12.805 14.268 C 13.139 14.238 13.57 14.167 13.924 13.884 C 14.376 13.523 14.639 12.976 14.639 12.397 C 14.638 11.943 14.425 11.563 14.24 11.283 C 14.05 10.997 13.779 10.658 13.468 10.269 L 11.719 8.083 L 11.719 5.135 L 12.531 3.692 C 12.735 3.329 12.918 3.005 13.041 2.73 C 13.166 2.451 13.293 2.092 13.247 1.687 C 13.187 1.155 12.905 0.672 12.471 0.359 C 12.141 0.121 11.765 0.055 11.46 0.027 C 11.161 0 10.789 0 10.372 0 L 4.267 0 Z M 3.192 1.949 C 3.18 1.926 3.178 1.911 3.178 1.899 C 3.178 1.885 3.183 1.867 3.193 1.849 C 3.204 1.832 3.217 1.819 3.229 1.812 C 3.239 1.806 3.254 1.8 3.279 1.8 L 11.359 1.8 C 11.385 1.8 11.4 1.806 11.41 1.812 C 11.422 1.819 11.435 1.832 11.446 1.849 C 11.456 1.867 11.46 1.885 11.461 1.899 C 11.461 1.911 11.459 1.926 11.446 1.949 L 10.035 4.458 C 9.959 4.592 9.919 4.744 9.919 4.899 L 9.919 8.399 C 9.919 8.603 9.989 8.801 10.117 8.961 L 12.817 12.336 C 12.836 12.36 12.839 12.377 12.84 12.387 C 12.842 12.401 12.839 12.421 12.829 12.442 C 12.819 12.464 12.805 12.478 12.793 12.486 C 12.784 12.491 12.77 12.499 12.739 12.499 L 1.9 12.499 C 1.869 12.499 1.855 12.491 1.846 12.486 C 1.834 12.478 1.82 12.464 1.81 12.442 C 1.8 12.421 1.797 12.401 1.798 12.387 C 1.799 12.377 1.803 12.36 1.822 12.336 L 4.522 8.961 C 4.65 8.801 4.719 8.603 4.719 8.399 L 4.719 4.899 C 4.719 4.744 4.68 4.592 4.604 4.458 L 3.192 1.949 Z" fill="currentColor" fill-rule="evenodd" transform="matrix(1 0 0 1 4.681 2.602)"></path></svg>