<svg xmlns="http://www.w3.org/2000/svg" viewBox="0 0 24 24" width="24" height="24" fill="currentColor"><path d="M 4.267 0 L 10.372 0 C 10.788 0 11.161 0 11.46 0.027 C 11.765 0.055 12.141 0.121 12.471 0.359 C 12.905 0.672 13.187 1.155 13.247 1.687 C 13.293 2.092 13.166 2.451 13.041 2.73 C 12.918 3.005 12.735 3.329 12.531 3.692 L 11.719 5.135 L 11.719 8.083 L 13.468 10.269 C 13.779 10.658 14.05 10.997 14.239 11.283 C 14.425 11.563 14.638 11.943 14.639 12.397 C 14.639 12.976 14.376 13.523 13.924 13.884 C 13.57 14.167 13.139 14.238 12.805 14.268 C 12.463 14.299 12.029 14.299 11.531 14.299 L 8.219 14.299 L 8.219 19.399 C 8.219 19.896 7.816 20.299 7.319 20.299 C 6.822 20.299 6.419 19.896 6.419 19.399 L 6.419 14.299 L 3.107 14.299 C 2.61 14.299 2.176 14.299 1.834 14.268 C 1.499 14.238 1.069 14.167 0.715 13.884 C 0.262 13.523 -0.001 12.976 0 12.397 C 0 11.943 0.214 11.563 0.399 11.283 C 0.588 10.997 0.86 10.658 1.171 10.269 L 2.919 8.083 L 2.919 5.135 L 2.108 3.692 C 1.903 3.329 1.721 3.005 1.598 2.73 C 1.473 2.451 1.346 2.092 1.391 1.687 C 1.452 1.155 1.734 0.672 2.168 0.359 C 2.498 0.121 2.874 0.055 3.179 0.027 C 3.478 0 3.85 0 4.267 0 Z" fill="currentColor" fill-rule="nonzero" transform="matrix(1 0 0 1 4.681 2.602)"></path></svg>