<svg xmlns="http://www.w3.org/2000/svg" viewBox="0 0 24 24" width="24" height="24" fill="currentColor"><path d="M 9.781 0.819 C 9.718 0.356 9.322 0 8.842 0 C 8.319 0 7.895 0.424 7.895 0.947 L 7.895 7.895 L 0.947 7.895 L 0.819 7.903 C 0.356 7.966 0 8.362 0 8.842 C 0 9.365 0.424 9.789 0.947 9.789 L 7.895 9.789 L 7.895 16.737 L 7.903 16.865 C 7.966 17.328 8.363 17.684 8.842 17.684 C 9.365 17.684 9.79 17.26 9.79 16.737 L 9.79 9.789 L 16.737 9.789 L 16.865 9.781 C 17.328 9.718 17.684 9.322 17.684 8.842 C 17.684 8.319 17.26 7.895 16.737 7.895 L 9.79 7.895 L 9.79 0.947 L 9.781 0.819 Z" fill="currentColor" fill-rule="nonzero" transform="matrix(1 0 0 1 3.158 3.158)"></path></svg>