<svg xmlns="http://www.w3.org/2000/svg" viewBox="0 0 24 24" width="24" height="24" fill="currentColor"><path d="M 9.337 0.585 C 9.526 0.349 9.877 0 10.435 0 C 10.993 0 11.344 0.349 11.533 0.585 C 11.708 0.803 11.882 1.102 12.05 1.392 C 12.059 1.407 12.068 1.422 12.077 1.437 L 14.385 5.401 C 14.393 5.414 14.401 5.427 14.408 5.439 C 14.421 5.442 14.435 5.445 14.451 5.448 L 18.934 6.419 C 18.951 6.423 18.968 6.426 18.985 6.43 C 19.313 6.501 19.65 6.574 19.912 6.672 C 20.195 6.779 20.635 7.006 20.808 7.536 C 20.98 8.067 20.757 8.509 20.591 8.762 C 20.437 8.995 20.207 9.253 19.983 9.502 C 19.972 9.516 19.96 9.529 19.948 9.542 L 16.892 12.962 C 16.881 12.974 16.872 12.985 16.863 12.995 C 16.864 13.009 16.866 13.023 16.867 13.039 L 17.329 17.602 C 17.331 17.62 17.333 17.637 17.335 17.655 C 17.368 17.988 17.403 18.332 17.39 18.611 C 17.376 18.914 17.297 19.402 16.846 19.73 C 16.394 20.058 15.905 19.982 15.613 19.902 C 15.344 19.828 15.028 19.689 14.721 19.554 C 14.705 19.547 14.689 19.54 14.673 19.532 L 10.475 17.683 C 10.461 17.676 10.447 17.671 10.435 17.665 C 10.423 17.671 10.409 17.676 10.395 17.683 L 6.197 19.532 C 6.181 19.54 6.165 19.547 6.149 19.554 C 5.842 19.689 5.526 19.828 5.257 19.902 C 4.965 19.982 4.476 20.058 4.024 19.73 C 3.573 19.402 3.494 18.914 3.48 18.611 C 3.467 18.332 3.502 17.988 3.535 17.655 C 3.537 17.637 3.539 17.62 3.541 17.602 L 4.003 13.039 C 4.004 13.023 4.006 13.009 4.007 12.995 C 3.998 12.985 3.989 12.974 3.978 12.962 L 0.922 9.542 C 0.91 9.529 0.898 9.516 0.887 9.502 C 0.663 9.253 0.433 8.995 0.279 8.762 C 0.113 8.509 -0.11 8.067 0.062 7.536 C 0.235 7.006 0.675 6.779 0.958 6.672 C 1.22 6.574 1.557 6.501 1.885 6.43 C 1.902 6.426 1.919 6.423 1.936 6.419 L 6.419 5.448 C 6.435 5.445 6.449 5.442 6.462 5.439 C 6.469 5.427 6.477 5.414 6.485 5.401 L 8.793 1.437 C 8.802 1.422 8.811 1.407 8.82 1.392 C 8.988 1.102 9.162 0.803 9.337 0.585 Z" fill="currentColor" fill-rule="evenodd" transform="matrix(1 0 0 1 1.565 1.793)"></path></svg>