<svg xmlns="http://www.w3.org/2000/svg" viewBox="0 0 24 24" width="24" height="24" fill="currentColor"><path d="M 5.662 0 C 4.854 0 4.193 0 3.656 0.044 C 3.1 0.089 2.598 0.186 2.129 0.425 C 1.396 0.799 0.799 1.396 0.425 2.129 C 0.186 2.598 0.089 3.1 0.044 3.656 C 0 4.193 0 4.854 0 5.662 L 0 13.138 C 0 13.946 0 14.607 0.044 15.144 C 0.089 15.7 0.186 16.202 0.425 16.671 C 0.799 17.404 1.396 18.001 2.129 18.375 C 2.598 18.614 3.1 18.711 3.656 18.756 C 4.193 18.8 4.854 18.8 5.662 18.8 L 13.138 18.8 C 13.946 18.8 14.607 18.8 15.144 18.756 C 15.7 18.711 16.202 18.614 16.671 18.375 C 17.404 18.001 18.001 17.404 18.375 16.671 C 18.614 16.202 18.711 15.7 18.756 15.144 C 18.8 14.607 18.8 13.946 18.8 13.138 L 18.8 5.662 C 18.8 4.854 18.8 4.193 18.756 3.656 C 18.711 3.1 18.614 2.598 18.375 2.129 C 18.001 1.396 17.404 0.799 16.671 0.425 C 16.202 0.186 15.7 0.089 15.144 0.044 C 14.607 0 13.946 0 13.138 0 L 5.662 0 Z M 2.947 2.029 C 3.119 1.941 3.358 1.874 3.803 1.838 C 4.258 1.801 4.845 1.8 5.7 1.8 L 13.1 1.8 C 13.955 1.8 14.542 1.801 14.997 1.838 C 15.442 1.874 15.68 1.941 15.853 2.029 C 16.248 2.23 16.57 2.551 16.771 2.947 C 16.859 3.119 16.926 3.358 16.962 3.803 C 16.999 4.258 17 4.845 17 5.7 L 17 5.998 L 1.8 5.998 L 1.8 5.7 C 1.8 4.845 1.801 4.258 1.838 3.803 C 1.874 3.358 1.941 3.119 2.029 2.947 C 2.23 2.551 2.551 2.23 2.947 2.029 Z M 1.8 7.798 L 1.8 13.1 C 1.8 13.955 1.801 14.542 1.838 14.997 C 1.874 15.442 1.941 15.681 2.029 15.853 C 2.23 16.249 2.551 16.57 2.947 16.771 C 3.119 16.859 3.358 16.926 3.803 16.962 C 4.258 16.999 4.845 17 5.7 17 L 6 17 L 6 7.798 L 1.8 7.798 Z M 7.8 17 L 13.1 17 C 13.955 17 14.542 16.999 14.997 16.962 C 15.442 16.926 15.68 16.859 15.853 16.771 C 16.248 16.57 16.57 16.249 16.771 15.853 C 16.859 15.681 16.926 15.442 16.962 14.997 C 16.999 14.542 17 13.955 17 13.1 L 17 7.798 L 7.8 7.798 L 7.8 17 Z" fill="currentColor" fill-rule="evenodd" transform="matrix(1 0 0 1 2.600 2.602)"></path></svg>