<svg xmlns="http://www.w3.org/2000/svg" viewBox="0 0 24 24" width="24" height="24" fill="currentColor"><path d="M 10.4 0 C 4.656 0 0 4.656 0 10.4 C 0 10.558 0.004 10.714 0.01 10.87 C 0.025 11.206 0.226 11.505 0.53 11.646 C 0.834 11.788 1.192 11.748 1.458 11.544 C 2.065 11.077 2.824 10.8 3.65 10.8 C 4.558 10.8 5.386 11.135 6.019 11.69 C 6.322 11.954 6.762 11.986 7.1 11.769 C 7.812 11.31 8.625 10.995 9.5 10.866 L 9.5 17.15 C 9.5 17.896 8.896 18.5 8.15 18.5 C 7.404 18.5 6.8 17.896 6.8 17.15 C 6.8 16.653 6.397 16.25 5.9 16.25 C 5.403 16.25 5 16.653 5 17.15 C 5 18.89 6.41 20.3 8.15 20.3 C 9.89 20.3 11.3 18.89 11.3 17.15 L 11.3 10.866 C 12.175 10.995 12.988 11.31 13.7 11.769 C 14.038 11.986 14.478 11.954 14.781 11.69 C 15.414 11.135 16.242 10.8 17.15 10.8 C 17.976 10.8 18.735 11.077 19.342 11.544 C 19.608 11.748 19.966 11.788 20.27 11.646 C 20.574 11.505 20.775 11.206 20.79 10.871 C 20.796 10.714 20.8 10.558 20.8 10.4 C 20.8 4.656 16.144 0 10.4 0 Z M 3.65 9 C 3.027 9 2.427 9.106 1.87 9.301 C 2.409 5.07 6.023 1.8 10.4 1.8 C 14.777 1.8 18.391 5.07 18.93 9.301 C 18.373 9.106 17.773 9 17.15 9 C 16.028 9 14.984 9.343 14.12 9.929 C 13.011 9.336 11.744 9 10.4 9 C 9.056 9 7.789 9.336 6.68 9.929 C 5.816 9.343 4.772 9 3.65 9 Z" fill="currentColor" fill-rule="evenodd" transform="matrix(1 0 0 1 1.600 2.100)"></path></svg>