<svg width="890" height="268" viewBox="0 0 890 268" fill="none" xmlns="http://www.w3.org/2000/svg">
<path d="M121.5 0C188.603 0 243 55.7405 243 124.5C243 147.745 236.781 169.501 225.958 188.119C218.448 192.471 205.358 199.557 195 202.5C183.053 205.895 163.516 206.973 163.5 206.974C191.201 191.551 210 161.52 210 127C210 76.7421 170.153 36 121 36C71.8467 36 32 76.7421 32 127C32 145.468 38.7543 167.651 48 182L25.9219 201.374C9.68477 180.207 0 153.512 0 124.5C0 55.7405 54.3974 0 121.5 0Z" fill="#1D4ED8"/>
<path d="M68.5 185C49.6914 191.067 29.5 207.5 29.5 207.5C29.5 207.5 54.5 232.435 77 240.5C106.079 250.923 130.46 252.035 160 243C184.91 235.381 211.5 207.5 211.5 207.5C211.5 207.5 181 220.117 162 219C149.566 218.269 139.5 217.5 131 211.5C125.499 207.617 120.55 202.282 124 196.5C126.627 192.099 135 192.5 135 192.5C135 192.5 126.895 185.426 118 183C101.5 178.5 84 180 68.5 185Z" fill="#2563EB"/>
<path d="M68.5 185C84 180 101.5 178.5 118 183C126.895 185.426 135 192.5 135 192.5C135 192.5 116.402 189.595 104.5 190.5C87.9185 191.761 78.2475 194.316 63.5 202C56.1409 205.835 47.8952 212.587 41.5508 218.316C34.2997 212.285 29.5204 207.52 29.5 207.5C29.5 207.5 49.6914 191.067 68.5 185Z" fill="#93C5FD"/>
<path d="M683.5 75.5C713.818 75.5 738.456 99.8096 738.989 130H739V186H738.998C738.928 194.772 732.241 201.86 724 201.86C715.759 201.86 709.072 194.772 709.002 186H709V131C709 116.641 697.359 105 683 105C668.641 105 657 116.641 657 131V186.383H656.99C656.726 194.502 650.341 201 642.5 201C634.659 201 628.274 194.502 628.01 186.383H628V130H628.011C628.544 99.8096 653.182 75.5 683.5 75.5Z" fill="#1A1A1A"/>
<path d="M404 76C433.706 76 457.911 99.5508 458.964 129H459V185H458.998C458.928 193.772 452.241 200.86 444 200.86C435.759 200.86 429.072 193.772 429.002 185H429V131H428.993C428.996 130.834 429 130.667 429 130.5C429 116.417 417.583 105 403.5 105C389.417 105 378 116.417 378 130.5C378 130.667 378.004 130.834 378.007 131H378V186.383H377.99C377.726 194.502 371.341 201 363.5 201C355.659 201 349.274 194.502 349.01 186.383H349V131H348.993C348.996 130.834 349 130.667 349 130.5C349 116.417 337.583 105 323.5 105C309.417 105 298 116.417 298 130.5C298 130.667 298.004 130.834 298.007 131H298V185H297.998C297.928 193.772 291.241 200.86 283 200.86C274.759 200.86 268.072 193.772 268.002 185H268V129H268.036C269.089 99.5508 293.294 76 323 76C339.024 76 353.448 82.8532 363.5 93.7881C373.552 82.8532 387.976 76 404 76Z" fill="#1A1A1A"/>
<path d="M543.5 76C579.122 76 608 104.878 608 140.5C608 176.122 579.122 205 543.5 205C507.878 205 479 176.122 479 140.5C479 104.878 507.878 76 543.5 76ZM543.5 105C523.894 105 508 120.894 508 140.5C508 160.106 523.894 176 543.5 176C563.106 176 579 160.106 579 140.5C579 120.894 563.106 105 543.5 105Z" fill="#1A1A1A"/>
<path d="M825.5 74C861.122 74 890 102.878 890 138.5C890 138.667 889.998 138.833 889.997 139H890V203H889.997C889.998 203.167 890 203.333 890 203.5C890 239.122 861.122 268 825.5 268C806.738 268 789.848 259.987 778.062 247.199C774.392 244.478 772 240.028 772 235C772 226.716 778.492 220 786.5 220C791.422 220 795.77 222.537 798.392 226.416C804.903 234.112 814.63 239 825.5 239C845.106 239 861 223.106 861 203.5C861 203.333 860.995 203.166 860.993 203H861V192.358C850.817 199.084 838.616 203 825.5 203C789.878 203 761 174.122 761 138.5C761 102.878 789.878 74 825.5 74ZM825.5 103C805.894 103 790 118.894 790 138.5C790 158.106 805.894 174 825.5 174C845.106 174 861 158.106 861 138.5C861 118.894 845.106 103 825.5 103Z" fill="#1A1A1A"/>
<path d="M888.935 215.225C883.421 245.249 857.118 268 825.5 268C806.738 268 789.848 259.987 778.062 247.199C774.392 244.478 772 240.028 772 235C772 226.716 778.492 220 786.5 220C791.422 220 795.77 222.537 798.392 226.416C804.903 234.112 814.63 239 825.5 239C829.736 239 833.798 238.256 837.564 236.896C846.778 236.42 858.228 235.065 866.5 231.5C874.309 228.134 882.531 221.336 888.935 215.225Z" fill="#93C5FD"/>
<path d="M133.495 107C138.821 107 143.51 110.511 145.01 115.621L149.393 130.556C153.751 131.146 157.488 132.064 160 133.5C167 137.5 167 143 167 143V150C167 150 186 146.5 190.5 150.5C197.5 156.722 180.056 180.434 169 193.5C163.5 200 155 207.5 152 207.5C149 207.5 144.5 207 140 205.5C136.295 204.265 130.5 201.5 132 199.5C133.5 197.5 139.111 198.519 141 196C142.5 194 140.774 188.774 139 187C137.226 185.226 130.686 179.468 118.5 175.5C97 168.5 75.5 174.5 64.5 178.5C53.5 182.5 32 195.947 32 195.947C32 195.947 38.1842 183.487 44.5 177.5C48.9789 173.255 57.4904 168.505 57.5 168.5C57.5 168.5 56.115 153.704 60.5 146C62.9626 141.674 64.9459 139.389 69 136.5C70.4755 135.449 72.0161 134.598 73.584 133.902L78.9502 115.621C80.45 110.511 85.1381 107 90.4639 107H133.495ZM103 144C99.6863 144 97 146.686 97 150C97 153.314 99.6863 156 103 156C106.314 156 109 153.314 109 150C109 146.686 106.314 144 103 144ZM121 144C117.686 144 115 146.686 115 150C115 153.314 117.686 156 121 156C124.314 156 127 153.314 127 150C127 146.686 124.314 144 121 144ZM139 144C135.686 144 133 146.686 133 150C133 153.314 135.686 156 139 156C142.314 156 145 153.314 145 150C145 146.686 142.314 144 139 144Z" fill="url(#paint0_linear_53_505)"/>
<path d="M133.516 107C138.842 107 143.53 110.511 145.03 115.621L145.142 116H78.8584L78.9697 115.621C80.4695 110.511 85.1585 107 90.4844 107H133.516Z" fill="#93C5FD"/>
<path d="M112 61C118.013 61 121.071 63.9733 121.815 67.9619C130.176 71.4793 136 79.352 136 88.5C136 100.926 125.255 111 112 111C98.7452 111 88 100.926 88 88.5C88 79.3523 93.823 71.4795 102.184 67.9619C102.928 63.9732 105.987 61 112 61Z" fill="#F2860C"/>
<path d="M126.935 50.9999C134.435 50 137.935 53.9999 143.935 52.9999C140.601 59.8332 130.034 70.3994 116.435 59.9999H113.701L113.588 63.4003C113.558 64.2919 112.827 64.9998 111.935 64.9999C111.043 64.9999 110.311 64.2919 110.281 63.4003L110.001 54.9979C109.965 53.9051 110.841 52.9999 111.935 52.9999C113.028 53 113.904 53.9052 113.868 54.9979L113.768 57.9999H116.435C117.435 55.9999 120.935 51.7999 126.935 50.9999Z" fill="#2AAE48"/>
<path d="M143.934 53C140.601 59.8333 130.034 70.4 116.434 60C118.268 58.8333 123.334 56.4 128.934 56C135.934 55.5 136.934 56.5 143.934 53Z" fill="#009A24"/>
<defs>
<linearGradient id="paint0_linear_53_505" x1="112.055" y1="107" x2="112.055" y2="208" gradientUnits="userSpaceOnUse">
<stop stop-color="#1A1A1A"/>
<stop offset="1" stop-color="#666666"/>
</linearGradient>
</defs>
</svg>
